<svg xmlns="http://www.w3.org/2000/svg" class="icon icon-tabler icon-tabler-brand-wechat" width="24" height="24" viewBox="0 0 24 24" stroke-width="2" stroke="currentColor" fill="none" stroke-linecap="round" stroke-linejoin="round">
  <path stroke="none" d="M0 0h24v24H0z" fill="none"/>
  <path d="M16.5 10c3.038 0 5.5 2.015 5.5 4.5c0 1.397 -.778 2.645 -2 3.47l0 2.03l-1.964 -1.178a6.649 6.649 0 0 1 -1.536 .178c-3.038 0 -5.5 -2.015 -5.5 -4.5s2.462 -4.5 5.5 -4.5z" />
  <path d="M11.197 15.698c-.69 .196 -1.43 .302 -2.197 .302a8.008 8.008 0 0 1 -2.612 -.432l-2.388 1.432v-2.801c-1.237 -1.082 -2 -2.564 -2 -4.199c0 -3.314 3.134 -6 7 -6c3.527 0 6.45 2.277 6.93 5.25" />
  <path d="M6.5 12c-.552 0 -1 -.224 -1 -.5s.448 -.5 1 -.5s1 .224 1 .5s-.448 .5 -1 .5z" />
  <path d="M11.5 12c-.552 0 -1 -.224 -1 -.5s.448 -.5 1 -.5s1 .224 1 .5s-.448 .5 -1 .5z" />
  <path d="M15 16c-.552 0 -1 -.224 -1 -.5s.448 -.5 1 -.5s1 .224 1 .5s-.448 .5 -1 .5z" />
  <path d="M18 16c-.552 0 -1 -.224 -1 -.5s.448 -.5 1 -.5s1 .224 1 .5s-.448 .5 -1 .5z" />
</svg>
